<?xml version="1.0" standalone="no"?>
<!DOCTYPE svg PUBLIC "-//W3C//DTD SVG 20010904//EN"
 "http://www.w3.org/TR/2001/REC-SVG-20010904/DTD/svg10.dtd">
<svg version="1.0" xmlns="http://www.w3.org/2000/svg"
 width="512.000000pt" height="512.000000pt" viewBox="0 0 512.000000 512.000000"
 preserveAspectRatio="xMidYMid meet">
<metadata>
Created by potrace 1.11, written by Peter Selinger 2001-2013
</metadata>
<g transform="translate(0.000000,512.000000) scale(0.100000,-0.100000)"
fill="#000000" stroke="none">
<path d="M2443 5059 c-123 -59 -555 -256 -1733 -789 -355 -160 -655 -298 -668
-306 l-22 -14 0 -1389 c0 -1339 1 -1388 19 -1405 10 -9 423 -209 917 -445 494
-235 1027 -490 1184 -566 157 -76 301 -140 320 -142 29 -4 78 15 275 107 132
62 708 323 1280 582 572 258 1050 476 1063 484 l22 14 0 1389 c0 1309 -1 1389
-17 1403 -23 20 -2486 1138 -2504 1137 -8 0 -69 -27 -136 -60z m341 -270 c99
-45 525 -237 946 -427 421 -190 789 -356 819 -369 l54 -24 -264 -124 -263
-125 -515 224 c-284 124 -748 326 -1031 450 l-514 224 54 25 c30 13 147 66
260 117 240 108 241 109 259 109 7 1 95 -35 195 -80z m-477 -961 c546 -254
993 -465 993 -468 0 -8 -696 -340 -711 -340 -11 0 -1987 882 -2046 914 l-28
15 50 22 c302 136 723 318 735 319 8 0 461 -208 1007 -462z m2563 -1232 c0
-999 -3 -1266 -12 -1274 -7 -5 -355 -169 -773 -365 -418 -195 -892 -416 -1053
-492 -161 -75 -294 -136 -295 -134 -1 2 0 563 3 1246 3 809 8 1245 15 1251 13
13 733 362 745 362 6 0 10 -225 10 -605 0 -477 3 -605 13 -605 15 0 636 336
660 357 16 15 17 57 17 603 0 546 1 588 18 602 16 15 629 316 645 317 4 1 7
-568 7 -1263z m-4017 973 c1225 -555 1613 -732 1629 -747 17 -14 18 -89 18
-1299 0 -705 -2 -1283 -4 -1283 -2 0 -249 115 -548 256 -298 141 -797 375
-1108 521 -311 145 -571 272 -578 281 -9 12 -12 284 -12 1278 l0 1263 36 -15
c20 -8 275 -123 567 -255z"/>
</g>
</svg>
