<?xml version="1.0" encoding="utf-8"?>
<svg version="1.1" id="Camada_1" xmlns="http://www.w3.org/2000/svg" xmlns:xlink="http://www.w3.org/1999/xlink" x="0px" y="0px"
	 viewBox="0 0 1047.3 258.7" style="enable-background:new 0 0 1047.3 258.7;" xml:space="preserve">
<style type="text/css">
	path{fill:#FFFFFF;}
</style>
<g>
	<path d="M122.5,258.7c-0.2,0-0.3,0-0.5,0c-0.8-0.5-1.6-1.2-2.5-1.6c-39-18.8-78-37.6-117-56.3c-1.9-0.9-2.5-1.9-2.5-4
		c0.1-45.1,0.1-90.2,0-135.4c0-2.1,0.6-3.1,2.5-3.9c35-15.9,70-32,105-48c6.9-3.1,13.7-6.4,20.5-9.6c0.3,0,0.7,0,1,0
		c0.7,0.4,1.4,0.9,2.2,1.2c40.2,18.5,80.4,36.9,120.6,55.3c1.9,0.9,2.5,1.8,2.5,3.9c-0.1,45.1-0.1,90.1,0,135.2
		c0,2.1-0.8,3.1-2.6,3.9c-35.3,16.1-70.5,32.2-105.8,48.3C138.1,251.4,130.3,255.1,122.5,258.7z M11.4,64c-0.1,1-0.1,1.6-0.1,2.3
		c0,41.6,0,83.2,0,124.8c0,1.6,0.5,2.4,1.9,3.1c36.4,17.2,72.8,34.5,109.1,51.8c0.6,0.3,1.3,0.5,2.2,0.8c0-1,0-1.5,0-2.1
		c0-42.2-0.1-84.4,0-126.5c0-2.1-0.8-2.9-2.5-3.7C86.5,98.1,51.1,82,15.7,65.8C14.3,65.2,12.9,64.6,11.4,64z M135.5,242.4
		c0.9-0.4,1.4-0.6,1.8-0.8c34.7-16.4,69.3-32.8,104-49.1c1.7-0.8,1.8-1.9,1.8-3.4c0-40.2,0-80.3,0-120.5c0-1.9,0-3.8,0-6.1
		c-1.2,0.5-2,0.9-2.8,1.3c-9.7,4.8-19.5,9.6-29.2,14.3c-1.6,0.8-2.2,1.6-2.2,3.4c0.1,18.7,0,37.4,0.1,56.1c0,1.7-0.5,2.5-2,3.3
		c-9.8,5.3-19.6,10.7-29.4,16.1c-0.6,0.3-1.3,0.6-2.5,1.2c0-20.9,0-41.3,0-62c-1.2,0.6-2,0.9-2.7,1.2c-11.5,5.6-22.9,11.3-34.4,16.9
		c-1.7,0.8-2.4,1.8-2.4,3.8c0,38.5,0,77,0,115.5C135.5,236.3,135.5,239.2,135.5,242.4z M23.8,58.8c0.5,0.3,0.7,0.5,0.9,0.6
		C58.9,74.9,93,90.3,127.2,105.7c0.7,0.3,1.7,0.4,2.3,0.1c11.9-5.6,23.8-11.3,35.8-17.1c-0.4-0.3-0.6-0.6-0.9-0.7
		c-33-15.5-66-31-99-46.5c-0.7-0.3-1.7-0.4-2.3-0.1C50,47.1,37.1,52.9,23.8,58.8z M229.9,57.9c-0.9-0.5-1.5-0.9-2.2-1.2
		c-32.4-14.8-64.8-29.6-97.3-44.3c-1-0.5-2.7-0.4-3.7,0c-8.5,3.8-17,7.7-25.5,11.6c-0.6,0.3-1.2,0.7-1.8,1c0.3,0.2,0.3,0.3,0.4,0.3
		c34,15,68,30,102,44.9c0.6,0.3,1.5,0.3,2.1,0.1C212.4,66.2,221,62.1,229.9,57.9z"/>
	<g>
		<path d="M326,196.1h-32.7V60.3H326V196.1z"/>
		<path d="M381.5,170.9h57v25.2h-89.7V60.3h32.7V170.9z"/>
		<path d="M539.8,85.6h-40.8v110.6h-32.7V85.6h-40V60.3h113.5V85.6z"/>
		<path d="M666,131c0,13.2-2.5,25-7.4,35.2c-4.9,10.2-11.9,18.1-20.9,23.6c-9.1,5.5-19.4,8.3-30.9,8.3s-21.8-2.7-30.8-8
			c-9-5.3-15.9-12.9-20.9-22.8c-5-9.9-7.6-21.2-7.9-34.1v-7.6c0-13.3,2.4-25,7.3-35.2c4.9-10.2,11.9-18,21-23.6
			c9.1-5.5,19.5-8.3,31.1-8.3c11.5,0,21.8,2.7,30.8,8.2c9,5.5,16,13.3,21,23.4c5,10.1,7.5,21.7,7.6,34.8V131z M632.7,125.3
			c0-13.5-2.3-23.7-6.8-30.7c-4.5-7-11-10.5-19.4-10.5c-16.4,0-25.1,12.3-26,36.9l-0.1,10c0,13.3,2.2,23.5,6.6,30.7
			c4.4,7.2,11,10.7,19.7,10.7c8.3,0,14.6-3.5,19.1-10.5c4.5-7,6.7-17.1,6.8-30.3V125.3z"/>
		<path d="M682.9,196.1V60.3h48.8c17.5,0,30.8,3.2,39.9,9.6c9.1,6.4,13.7,15.7,13.7,27.9c0,7-1.6,13-4.9,18c-3.2,5-8,8.6-14.3,11
			c7.1,1.9,12.5,5.3,16.3,10.4c3.8,5.1,5.7,11.3,5.7,18.7c0,13.3-4.2,23.3-12.6,30c-8.4,6.7-20.9,10.1-37.5,10.2H682.9z
			 M715.7,116.9h17.1c7.2-0.1,12.3-1.4,15.3-3.9c3-2.6,4.6-6.3,4.6-11.3c0-5.7-1.6-9.9-4.9-12.4c-3.3-2.5-8.6-3.8-16-3.8h-16V116.9z
			 M715.7,138.4v32.6h21.5c5.9,0,10.4-1.4,13.6-4.1c3.2-2.7,4.8-6.5,4.8-11.4c0-11.3-5.6-17-16.9-17.1H715.7z"/>
		<path d="M921.2,131c0,13.2-2.5,25-7.4,35.2c-4.9,10.2-11.9,18.1-20.9,23.6c-9.1,5.5-19.4,8.3-30.9,8.3s-21.8-2.7-30.8-8
			c-9-5.3-15.9-12.9-20.9-22.8c-5-9.9-7.6-21.2-7.9-34.1v-7.6c0-13.3,2.4-25,7.3-35.2c4.9-10.2,11.9-18,21-23.6
			c9.1-5.5,19.5-8.3,31.1-8.3c11.5,0,21.8,2.7,30.8,8.2c9,5.5,16,13.3,21,23.4c5,10.1,7.5,21.7,7.6,34.8V131z M887.9,125.3
			c0-13.5-2.3-23.7-6.8-30.7c-4.5-7-11-10.5-19.4-10.5c-16.4,0-25.1,12.3-26,36.9l-0.1,10c0,13.3,2.2,23.5,6.6,30.7
			c4.4,7.2,11,10.7,19.7,10.7c8.3,0,14.6-3.5,19.1-10.5c4.5-7,6.7-17.1,6.8-30.3V125.3z"/>
		<path d="M986.7,105.4l22.2-45.2h37.4l-38,67.4l39,68.5h-37.8l-22.9-46l-22.9,46h-37.7l38.9-68.5l-37.9-67.4h37.3L986.7,105.4z"/>
	</g>
</g>
</svg>
